<?xml version="1.0" encoding="UTF-8"?>
<svg id="Layer_1" data-name="Layer 1" xmlns="http://www.w3.org/2000/svg" viewBox="0 0 1669 227">
  <defs>
    <style>
      .cls-1 {
        opacity: .06;
      }

      .cls-2 {
        opacity: .05;
      }

      .cls-3, .cls-4 {
        opacity: .07;
      }

      .cls-4, .cls-5, .cls-6 {
        stroke-width: 0px;
      }

      .cls-4, .cls-6 {
        fill: #380099;
      }

      .cls-5 {
        fill: #fff;
      }
    </style>
  </defs>
  <g class="cls-3">
    <path class="cls-6" d="M506.78,115.77c1.92-1.37,4.32-2.06,7.2-2.06,2.62,0,4.8.69,6.54,2.06,1.22.96,2.04,2.15,2.49,3.53h-19.1c.57-1.38,1.51-2.56,2.86-3.53Z"/>
    <path class="cls-6" d="M1060.36,115.77c1.92-1.37,4.32-2.06,7.2-2.06,2.62,0,4.8.69,6.54,2.06,1.22.96,2.04,2.15,2.49,3.53h-19.09c.57-1.38,1.51-2.56,2.86-3.53Z"/>
  </g>
  <g class="cls-3">
    <path class="cls-6" d="M506.78,113.92c1.92-1.37,4.32-2.06,7.2-2.06,2.62,0,4.8.69,6.54,2.06,1.22.96,2.04,2.15,2.49,3.53h-19.1c.57-1.38,1.51-2.56,2.86-3.53Z"/>
    <path class="cls-6" d="M1060.36,113.92c1.92-1.37,4.32-2.06,7.2-2.06,2.62,0,4.8.69,6.54,2.06,1.22.96,2.04,2.15,2.49,3.53h-19.09c.57-1.38,1.51-2.56,2.86-3.53Z"/>
  </g>
  <g class="cls-3">
    <path class="cls-6" d="M506.78,112.06c1.92-1.37,4.32-2.06,7.2-2.06,2.62,0,4.8.69,6.54,2.06,1.22.96,2.04,2.15,2.49,3.53h-19.1c.57-1.38,1.51-2.56,2.86-3.53Z"/>
    <path class="cls-6" d="M1060.36,112.06c1.92-1.37,4.32-2.06,7.2-2.06,2.62,0,4.8.69,6.54,2.06,1.22.96,2.04,2.15,2.49,3.53h-19.09c.57-1.38,1.51-2.56,2.86-3.53Z"/>
  </g>
  <g class="cls-3">
    <path class="cls-6" d="M1443.96,99.35c.08-.4.49-2.05,1.34-4.24,0,0,0,0,0,0,.58-1.19,1.32-2.28,2.18-3.25.03-.03.05-.06.08-.09.2-.22.41-.44.62-.65.04-.03.07-.07.11-.1.62-.6,1.29-1.13,2-1.61.11-.07.21-.15.32-.21.18-.12.37-.22.56-.33.15-.09.3-.17.45-.25.17-.09.35-.18.52-.27.2-.1.41-.18.61-.27.14-.06.28-.12.42-.18.34-.13.69-.25,1.04-.35.13-.04.26-.07.38-.1.26-.07.51-.13.77-.19.14-.03.28-.06.42-.08.27-.05.54-.09.81-.12.13-.02.25-.03.38-.05.4-.04.8-.07,1.2-.07.46,0,1.07-.03,1.76-.07.52-.03,1.08-.06,1.65-.1.19-.01.38-.02.57-.03.57-.03,1.15-.07,1.68-.1.89-.05,1.68-.08,2.22-.08s1.07.02,1.57.05c.15,0,.3.02.44.03.37.03.72.06,1.07.1.14.02.28.03.41.05.91.13,1.74.32,2.5.56.11.04.22.08.33.12.27.1.53.2.79.31.1.05.2.09.3.14.66.32,1.25.7,1.77,1.13.08.06.15.13.23.2.19.17.36.34.53.53.07.07.14.14.2.22.44.51.81,1.08,1.12,1.71.05.09.09.19.13.29.11.24.21.48.3.74.04.1.07.2.11.31.63,1.91.84,4.25.69,7.03h-34.71l.11-.7ZM1445.3,95.11c-.15.31-.29.63-.43.95.13-.32.27-.64.43-.95ZM1444.82,96.2c-.11.29-.22.58-.32.87.09-.3.2-.59.32-.87ZM1444.38,97.49c-.07.22-.13.45-.19.67.05-.23.12-.45.19-.67Z"/>
  </g>
  <g>
    <path class="cls-5" d="M221.76,99.47l-60.92,23.69c-1.22-.44-2.53-.72-3.89-.8-7.62-.44-14.15,5.39-14.59,13.01-.44,7.62,5.39,14.15,13.01,14.59,6.45.37,12.1-3.75,13.96-9.64l54.65-36.59c2.78-1.86.91-5.46-2.21-4.25ZM155.91,140.54c-2.42-.14-4.28-2.22-4.14-4.64.14-2.42,2.22-4.28,4.64-4.14s4.28,2.22,4.14,4.64c-.14,2.42-2.22,4.28-4.64,4.14Z"/>
    <path class="cls-5" d="M107.31,136.15c0-26.98,21.87-48.85,48.85-48.85,14.08,0,26.75,5.96,35.67,15.49.43.33.85.71,1.28,1.18l29.03-11.85c-11.48-20.25-29.56-45.37-48.71-53.01,0,0,8.59,29.63-.02,22.4-10.99-9.23-31.23-18.01-45.36-16.44,0,0,12.59,24.82,7.66,23.14-9.84-3.35-28.8-1.85-36.54,1.36,0,0,12.41,10.99,8.56,15.12-12.52,13.42-16.33,33.04-15.57,47.06.93,17.19,15.31,39.69,32.18,44.49,1.05.3,4.78,1.42,5.91,1.3-13.77-8.64-22.93-23.95-22.93-41.4Z"/>
    <path class="cls-4" d="M225.14,100.57l-65.08,33.58c.04.08.07.16.11.24.27.62.43,1.29.39,2.02-.14,2.42-2.22,4.28-4.64,4.14-1.56-.09-2.85-.99-3.56-2.26l-8.37,4.39c2.2,4.1,6.4,6.99,11.38,7.27,6.45.37,12.1-3.75,13.96-9.64l54.65-36.59c1.33-.89,1.59-2.18,1.16-3.15Z"/>
    <path class="cls-4" d="M155.8,87.3c14.08-.12,26.75,5.96,35.67,15.49.43.33.85.71,1.28,1.18l29.03-11.85s-11.91-19.37-60.14-18.68c-14.39.2-25.66,3.45-41.15,15.14-7.7,5.81-15.47,15.21-19.63,29.68-3.62,12.6-.37,29.52,6.02,38.95,12.77,18.84,23.36,20.35,23.36,20.35,0,0-10.13-6.8-15.19-15.14-4.91-8.09-9.12-18.6-7.49-31.16,5.27-40.54,41.77-43.9,48.25-43.95Z"/>
  </g>
  <g>
    <path class="cls-5" d="M392.23,105.89c0,10.01-2.66,18.79-7.99,26.32-5.41,7.62-12.48,13.07-21.21,16.35l17.8,17.68c.79.88.74,1.64-.13,2.26l-13.22,11.56c-.79.71-1.49.62-2.1-.27l-20.81-28.05c-12.66,0-23.26-3.94-31.81-11.83-8.38-7.98-12.57-18.34-12.57-31.1s4.54-24.28,13.61-32.96c8.99-8.59,20.29-12.89,33.9-12.89,12.65,0,23.26,3.99,31.81,11.96,8.46,7.8,12.7,18.12,12.7,30.97ZM322.59,108.41c0,7.09,2.03,12.81,6.09,17.15,4.06,4.34,9.45,6.51,16.17,6.51,7.42,0,13.44-2.39,18.07-7.18,4.62-4.87,6.94-11.08,6.94-18.61,0-7.09-2.07-12.8-6.22-17.15-4.15-4.34-9.62-6.51-16.43-6.51-7.33,0-13.27,2.44-17.8,7.31-4.54,4.7-6.81,10.86-6.81,18.48Z"/>
    <path class="cls-5" d="M443.94,127.82l5.76-36.82c.17-.97.74-1.46,1.7-1.46h17.41c1.05,0,1.53.58,1.44,1.73l-9.03,57.29c-.18.98-.74,1.46-1.7,1.46h-17.28c-1.05,0-1.53-.58-1.44-1.73l.26-1.73c-4.45,3.46-9.77,5.18-15.97,5.18-7.42,0-12.96-2.53-16.63-7.58-3.67-5.05-4.84-11.74-3.53-20.07l5.24-33.1c.17-.97.74-1.46,1.7-1.46h17.41c1.05,0,1.53.58,1.44,1.73l-4.84,31.1c-1.13,6.91,1.44,10.37,7.72,10.37,4.19,0,7.64-1.64,10.34-4.92Z"/>
    <path class="cls-5" d="M511.88,151.74c-9.34,0-16.84-2.79-22.52-8.37-5.59-5.67-8.38-13.16-8.38-22.46,0-10.01,3.1-18.08,9.29-24.19,6.2-6.2,14.22-9.3,24.09-9.3,8.81,0,15.8,2.44,20.95,7.31,5.32,4.87,7.99,11.3,7.99,19.27,0,3.55-.44,6.91-1.31,10.1-.26.89-.83,1.33-1.7,1.33h-39.27c.44,2.75,1.85,4.96,4.25,6.65,2.4,1.68,5.39,2.53,8.97,2.53,5.58,0,10.34-1.86,14.27-5.58.87-.71,1.61-.62,2.23.27l7.46,10.77c.52.8.57,1.46.13,1.99-2.62,3.01-6.31,5.38-11.06,7.11-4.76,1.73-9.88,2.59-15.38,2.59ZM503.37,111.87h20.03c-.18-2.21-1.14-4.01-2.88-5.38-1.75-1.37-3.93-2.06-6.54-2.06-2.88,0-5.28.69-7.2,2.06-1.92,1.37-3.05,3.17-3.4,5.38Z"/>
    <path class="cls-5" d="M577.34,151.74c-10.47,0-18.55-2.04-24.22-6.11-.7-.53-.87-1.24-.52-2.13l6.02-11.96c.44-1.06,1.18-1.24,2.23-.53,5.06,3.28,10.82,4.92,17.28,4.92,4.45,0,6.68-1.28,6.68-3.85,0-.97-.26-1.66-.79-2.06-.52-.4-1.49-.77-2.88-1.13l-5.63-1.6c-3.93-.97-7.55-2.57-10.87-4.79-3.93-2.75-5.89-7.18-5.89-13.29,0-6.82,2.51-12.16,7.53-16.02,5.02-3.85,11.85-5.78,20.49-5.78s15.49,1.55,21.86,4.65c.96.44,1.22,1.15.79,2.13l-6.02,11.83c-.44,1.15-1.18,1.37-2.22.66-4.37-2.3-9.21-3.46-14.53-3.46-4.45,0-6.68,1.2-6.68,3.59,0,.71.22,1.31.65,1.79.44.49.87.82,1.31,1,.44.18,1.22.4,2.36.66l6.41,1.73c3.84,1.06,7.16,2.61,9.95,4.65,4.01,2.66,6.02,7.04,6.02,13.16,0,6.82-2.62,12.18-7.85,16.08-5.24,3.9-12.39,5.85-21.47,5.85Z"/>
    <path class="cls-5" d="M674.08,106.95h-16.76l-2.49,15.82c-.7,4.25-.37,7.24.98,8.97,1.35,1.73,3.6,2.59,6.74,2.59,1.39,0,3.05-.22,4.97-.66.61-.18,1.07-.13,1.37.13.3.27.41.71.33,1.33l-1.96,13.16c-.09.89-.57,1.46-1.44,1.73-4.01,1.15-8.07,1.73-12.17,1.73-7.51,0-13.01-2.35-16.49-7.04-3.49-4.7-4.5-11.56-3.01-20.6l2.75-17.15h-14.14c-1.05,0-1.53-.58-1.44-1.73l2.09-14.22c.17-.97.74-1.46,1.7-1.46h14.4l3.66-23.26c.17-.97.74-1.46,1.7-1.46h17.28c1.05,0,1.53.58,1.44,1.73l-3.53,22.99h16.49c1.05,0,1.53.58,1.44,1.73l-2.23,14.22c-.18.98-.74,1.46-1.7,1.46Z"/>
    <path class="cls-5" d="M773.28,102.03h47.78c.87,0,1.39.49,1.57,1.46.26,2.48.39,5.01.39,7.58,0,12.05-4.1,21.84-12.31,29.37-8.2,7.53-18.94,11.3-32.2,11.3s-23.26-3.94-31.55-11.83c-8.2-7.98-12.31-18.34-12.31-31.1,0-13.82,4.45-24.9,13.35-33.23,8.99-8.42,20.2-12.63,33.64-12.63,9.51,0,17.85,2.31,25,6.91,7.15,4.61,11.91,10.72,14.27,18.34.26,1.06-.09,1.73-1.05,1.99l-16.63,5.32c-.87.27-1.53-.09-1.96-1.06-1.57-3.54-4.19-6.4-7.85-8.57-3.67-2.17-7.81-3.26-12.44-3.26-7.16,0-12.96,2.35-17.41,7.04-4.36,4.7-6.54,10.86-6.54,18.48s2.07,13.07,6.22,17.41c4.14,4.34,9.62,6.51,16.43,6.51,4.71,0,8.9-1.08,12.57-3.26,3.66-2.17,6.11-5.03,7.33-8.57h-28.93c-1.05,0-1.53-.58-1.44-1.73l2.36-15.02c.17-.97.74-1.46,1.7-1.46Z"/>
    <path class="cls-5" d="M886.65,93.53l.39-2.53c.17-.97.74-1.46,1.7-1.46h17.41c1.05,0,1.53.58,1.44,1.73l-8.9,57.29c-.18.98-.74,1.46-1.7,1.46h-17.41c-1.05,0-1.53-.58-1.44-1.73l.26-1.6c-3.58,3.37-8.73,5.05-15.45,5.05-7.85,0-14.4-2.75-19.64-8.24-5.24-5.4-7.85-12.71-7.85-21.93,0-9.75,3.01-17.81,9.03-24.19,6.11-6.47,13.92-9.7,23.43-9.7,8.12,0,14.35,1.95,18.72,5.85ZM870.29,133.27c4.89,0,8.51-1.42,10.87-4.25l2.62-16.48c-2.62-3.99-6.89-5.98-12.83-5.98-4.19,0-7.57,1.24-10.15,3.72-2.58,2.48-3.86,5.76-3.86,9.84s1.22,7.07,3.66,9.5c2.44,2.44,5.67,3.66,9.69,3.66Z"/>
    <path class="cls-5" d="M1000.15,87.41c7.5,0,13.02,2.35,16.56,7.05,3.53,4.7,4.69,11.12,3.47,19.27l-5.37,34.82c-.18.98-.74,1.46-1.7,1.46h-17.41c-1.05,0-1.53-.58-1.44-1.73l4.84-31.37c1.13-7-1.18-10.5-6.94-10.5-4.54,0-8.12,1.82-10.74,5.45l-.26,1.86-5.5,34.82c-.17.98-.74,1.46-1.7,1.46h-17.28c-1.05,0-1.53-.58-1.44-1.73l4.85-31.37c1.05-7-1.27-10.5-6.94-10.5-4.45,0-8.07,1.82-10.87,5.45l-5.63,36.69c-.18.98-.74,1.46-1.7,1.46h-17.41c-1.05,0-1.53-.58-1.44-1.73l8.9-57.29c.17-.97.74-1.46,1.7-1.46h17.41c1.13,0,1.61.53,1.44,1.6l-.26,1.59c4.89-3.54,10.38-5.32,16.49-5.32,7.68,0,13.22,2.7,16.63,8.11,2.53-2.39,5.8-4.34,9.82-5.85,4.01-1.51,7.99-2.26,11.91-2.26Z"/>
    <path class="cls-5" d="M1065.47,151.74c-9.34,0-16.84-2.79-22.52-8.37-5.59-5.67-8.38-13.16-8.38-22.46,0-10.01,3.1-18.08,9.29-24.19,6.2-6.2,14.23-9.3,24.09-9.3,8.81,0,15.8,2.44,20.95,7.31,5.32,4.87,7.99,11.3,7.99,19.27,0,3.55-.44,6.91-1.31,10.1-.26.89-.83,1.33-1.7,1.33h-39.27c.44,2.75,1.85,4.96,4.25,6.65,2.4,1.68,5.39,2.53,8.97,2.53,5.58,0,10.34-1.86,14.27-5.58.87-.71,1.61-.62,2.23.27l7.46,10.77c.52.8.57,1.46.13,1.99-2.62,3.01-6.31,5.38-11.06,7.11-4.76,1.73-9.88,2.59-15.38,2.59ZM1056.96,111.87h20.03c-.18-2.21-1.14-4.01-2.88-5.38-1.75-1.37-3.93-2.06-6.54-2.06-2.88,0-5.28.69-7.2,2.06-1.92,1.37-3.05,3.17-3.4,5.38Z"/>
  </g>
  <g>
    <path class="cls-5" d="M503.37,110.01h20.03c-.18-2.21-1.14-4.01-2.88-5.38-1.75-1.37-3.93-2.06-6.54-2.06-2.88,0-5.28.69-7.2,2.06-1.92,1.37-3.05,3.17-3.4,5.38Z"/>
    <path class="cls-5" d="M886.65,91.67l.39-2.53c.17-.97.74-1.46,1.7-1.46h17.41c1.05,0,1.53.58,1.44,1.73l-8.9,57.29c-.18.98-.74,1.46-1.7,1.46h-17.41c-1.05,0-1.53-.58-1.44-1.73l.26-1.6c-3.58,3.37-8.73,5.05-15.45,5.05-7.85,0-14.4-2.75-19.64-8.24-5.24-5.4-7.85-12.71-7.85-21.93,0-9.75,3.01-17.81,9.03-24.19M870.29,131.41c4.89,0,8.51-1.42,10.87-4.25l2.62-16.48c-2.62-3.99-6.89-5.98-12.83-5.98-4.19,0-7.57,1.24-10.15,3.72-2.58,2.48-3.86,5.76-3.86,9.84s1.22,7.07,3.66,9.5c2.44,2.44,5.67,3.66,9.69,3.66Z"/>
    <path class="cls-5" d="M961.79,85.55c7.68,0,13.22,2.7,16.63,8.11,2.53-2.39,5.8-4.34,9.82-5.85,4.01-1.51,7.99-2.26,11.91-2.26,7.5,0,13.02,2.35,16.56,7.05,3.53,4.7,4.69,11.12,3.47,19.27l-5.37,34.82c-.18.98-.74,1.46-1.7,1.46h-17.41c-1.05,0-1.53-.58-1.44-1.73l4.84-31.37c1.13-7-1.18-10.5-6.94-10.5-4.54,0-8.12,1.82-10.74,5.45l-.26,1.86-5.5,34.82c-.17.98-.74,1.46-1.7,1.46h-17.28c-1.05,0-1.53-.58-1.44-1.73l4.85-31.37c1.05-7-1.27-10.5-6.94-10.5-4.45,0-8.07,1.82-10.87,5.45l-5.63,36.69c-.18.98-.74,1.46-1.7,1.46h-17.41c-1.05,0-1.53-.58-1.44-1.73l8.9-57.29c.17-.97.74-1.46,1.7-1.46h17.41c1.13,0,1.61.53,1.44,1.6"/>
  </g>
  <g>
    <g>
      <path class="cls-5" d="M1304.96,65.22h-18.98c-1.41,0-2.24.73-2.49,2.18l-10.12,65.79s-10.32.33-17.99.33c-11.76,0-16.57-6.12-14.27-19.44l1.34-8.99h-23.84s-1.66,10.77-1.66,10.77c-1.92,12.26-.79,22.6,5.08,29.47,4.34,5.07,13.75,8.86,24.48,8.86,9.59,0,24.51-.35,26.04-.35h19.17c1.41,0,2.24-.72,2.49-2.18l12.85-83.86c.13-1.71-.57-2.57-2.11-2.57Z"/>
      <path class="cls-5" d="M1315.47,154.17h18.98c1.41,0,2.24-.73,2.49-2.18l10.12-65.79s10.32-.33,17.99-.33c11.76,0,16.57,6.12,14.27,19.44l-7.32,48.5h23.84s7.64-50.28,7.64-50.28c1.92-12.26.79-22.6-5.08-29.47-4.34-5.07-13.75-8.86-24.48-8.86-9.59,0-24.51.35-26.04.35h-19.17c-1.41,0-2.24.72-2.49,2.18l-12.85,83.86c-.13,1.71.57,2.57,2.11,2.57Z"/>
      <path class="cls-5" d="M1245.79,82.65l2.22-14.86c.13-1.71-.57-2.57-2.11-2.57h-18.98c-1.41,0-2.24.73-2.49,2.18l-2.35,15.25h23.72Z"/>
    </g>
    <path class="cls-5" d="M1249.13,65.22h-97.37c-1.06,0-2.06.85-2.22,1.9l-2.92,18.64c-.16,1.04.57,1.9,1.62,1.9h31.13s-10.5,64.61-10.5,64.61c-.16,1.05.56,1.9,1.62,1.9h20.46c1.06,0,2.06-.85,2.22-1.9l10.5-64.61h43.86s3.21-20.55,3.21-20.55c.16-1.04-.57-1.9-1.62-1.9Z"/>
    <path class="cls-5" d="M1574.95,83.22c.73-.86,1.2-1.93,1.33-3.05l1.14-9.62c.69-5.79-3.27-5.71-6.15-5.71-7.7,0-5.44-.07-10.32.06-4.29.11-11.81,2.02-16.86,9.52,0,0,1.89-9.17,1.67-9.17h-21.25c-1.41,0-2.24.72-2.49,2.18l-12.85,83.86c-.13,1.71.57,2.57,2.11,2.57h18.98c1.41,0,2.24-.73,2.49-2.18l8.07-52.49c1.14-7.41,8.21-13.51,15.7-13.59,6.11-.06,10.56-.28,14.17-.36,1.64-.04,3.19-.77,4.26-2.03h0Z"/>
    <path class="cls-5" d="M1484.24,115.28h0s15.36,0,15.36,0l2.37-11.74c1.92-12.26.79-22.6-5.08-29.47-4.34-5.07-13.75-8.86-24.48-8.86h-18.27c-17.43,0-29.17,11.79-32.65,27.96l-4.06,22.67c-1.92,12.26-.79,22.6,5.08,29.47,4.34,5.07,13.75,8.86,24.48,8.86,9.59,0,29.35-.35,29.35-.35,14.16,0,15.77-4.04,17.67-10.65l1.98-9.75s-33.61.09-40.13.09c-11.39,0-16.24-5.77-14.44-18.23h42.83ZM1443.96,98.34c1.07-7.06,7.08-12.32,14.23-12.42,1.82-.03,6.18-.39,7.89-.39,9.73,0,12.96,4.44,12.49,13.5h-34.71l.11-.7Z"/>
  </g>
  <g class="cls-2">
    <path class="cls-6" d="M1293.97,76.71l-10.12,65.79s-45.02.33-52.69.33c-6.5,0-11.11-1.84-13.56-5.73.97,3.11,2.41,5.87,4.42,8.22,4.34,5.07,13.75,8.86,24.48,8.86,9.59,0,24.51-.35,26.04-.35h19.17c1.41,0,2.24-.72,2.49-2.18l11.81-77.12h-9.57c-1.41,0-2.24.73-2.49,2.18Z"/>
    <path class="cls-6" d="M1216.95,115.85c-.38,2.41-.63,4.74-.76,6.99l1.24-8.32h-.27s-.21,1.33-.21,1.33Z"/>
    <path class="cls-6" d="M1391.78,101.6l-7.88,52.22h11.94s7.64-50.28,7.64-50.28c.95-6.06,1.15-11.65.4-16.58-3.77,2.56-10.81,7.13-12.1,14.64Z"/>
    <path class="cls-6" d="M1361.63,74.83c-1.81.03-2.71.05-3.12.05,0,0-.04,0-.14,0h-19.17c-1.41,0-2.24.72-2.49,2.18l-11.81,77.12h9.57c1.41,0,2.24-.73,2.49-2.18l10.12-65.79s10.32-.33,17.99-.33c1.82,0,3.46.17,4.94.46.06,0,3.22.7,5.87,2.66,2.59,1.92,3.43,5.55,3.43,5.49-1.59-14.16-10.3-19.79-17.66-19.67Z"/>
    <path class="cls-6" d="M1382.13,74.53s-.01,0-.02,0c.34,0,.68,0,1.01,0-.38-.05-.72-.06-.99,0Z"/>
    <path class="cls-6" d="M1249.44,75.55h-87.19c-1.06,0-2.06.85-2.22,1.9l-1.6,10.21h20.95s12.57-.17,12.57-.17l-11.16,66.69h10.18c1.06,0,2.06-.85,2.22-1.9l10.5-64.61h43.86s1.89-12.12,1.89-12.12Z"/>
    <path class="cls-6" d="M1558,74.51c-4.29.11-13.76,3.02-19.48,10.6-3.39,4.5-7.62,10.48-8.71,18.94l-7.78,49.79h8.22c1.41,0,2.24-.73,2.49-2.18l8.07-52.49c1.14-7.41,8.21-13.51,15.7-13.59,6.11-.06,10.56-.28,14.17-.36,1.64-.04,3.19-.77,4.26-2.03.73-.86,1.2-1.93,1.33-3.05l.71-6c-6.99.06-14.87.24-18.99.35Z"/>
    <path class="cls-6" d="M1416.87,131.29c.66,5.53,2.44,10.3,5.63,14.03,4.34,5.07,13.75,8.86,24.48,8.86,9.59,0,29.35-.35,29.35-.35,14.16,0,15.77-4.04,17.67-10.65l.07-.35c-19.49.16-57.63.46-62.46.46-8.51,0-13.51-4.52-14.75-11.99Z"/>
    <path class="cls-6" d="M1445.3,94.1c-.64,1.31-1.11,2.73-1.34,4.24.08-.4.49-2.05,1.34-4.24Z"/>
    <path class="cls-6" d="M1458.19,85.92c1.82-.03,6.18-.39,7.89-.39,7.3,0,10.94,2.5,12.1,7.57-1.08-11.57-4.43-15.31-11.44-15.6-12.9-.54-19.01,10.31-21.44,16.59,2.37-4.82,7.27-8.1,12.89-8.17Z"/>
    <path class="cls-6" d="M1492.96,92.96l-3.02,16.46-47.38.28-1.09,5.58h42.78s15.36,0,15.36,0l2.37-11.74c1.34-8.54,1.19-16.15-1.01-22.31-3.43,2.69-7.11,6.49-8.01,11.72Z"/>
    <path class="cls-6" d="M1441.34,115.9l-.03.15h.01c0-.05.01-.1.02-.15Z"/>
  </g>
  <g class="cls-1">
    <path class="cls-6" d="M771.58,103.5l-.14.9c.45-.59.93-1.17,1.44-1.72.22-.23.45-.42.67-.64h-.27c-.96,0-1.53.49-1.7,1.46Z"/>
    <path class="cls-6" d="M810.58,107.46c.44.98,1.09,1.33,1.96,1.06l10.22-3.27c-.05-.59-.08-1.18-.14-1.76-.18-.97-.7-1.46-1.57-1.46h-14.29c1.61,1.59,2.9,3.38,3.81,5.43Z"/>
    <path class="cls-6" d="M1020.19,102.67c-3.93,0-8.81,5.43-9.94,12.43l-4.97,34.91h7.82c.96,0,1.53-.49,1.7-1.46l5.37-34.82c.62-4.13.62-7.81.02-11.06h0Z"/>
    <path class="cls-6" d="M365.63,170.77c-.79.71-1.49.62-2.1-.27l-20.81-28.05c-12.66,0-23.26-3.94-31.81-11.83-.29-.27-.53-.57-.8-.85.59,3.72,1.59,7.19,3.02,10.43,8.49,7.68,18.97,11.53,31.46,11.53l20.81,28.05c.61.88,1.31.97,2.1.27l12.48-10.91-5.84-5.8-8.49,7.43Z"/>
    <path class="cls-6" d="M322.59,108.41c0-7.62,2.27-13.78,6.81-18.48,4.54-4.87,10.47-7.31,17.8-7.31,6.81,0,12.28,2.17,16.43,6.51,1.87,1.95,3.29,4.2,4.32,6.71-.22-6.55-2.26-11.9-6.18-16-1.51-1.59-3.21-2.88-5.08-3.88-13.47.07-24.67,4.36-33.58,12.88-.35.33-.67.67-1.01,1.01-.89,2.81-1.37,5.88-1.37,9.26,0,3.94.65,7.44,1.9,10.53-.01-.41-.05-.82-.05-1.24Z"/>
    <path class="cls-6" d="M390.38,96.6c0,10.01-2.66,18.79-7.99,26.32-1.43,2.01-2.98,3.86-4.64,5.57-1.14,3.54-2.97,6.69-5.55,9.41-2.13,2.2-4.57,3.88-7.29,5.06l3.29,3.27c6.39-3.31,11.75-7.97,16.05-14.03,5.32-7.53,7.99-16.3,7.99-26.32,0-5.18-.71-9.93-2.1-14.28.15,1.62.24,3.28.24,5Z"/>
    <path class="cls-6" d="M428.96,102.54h-3.3l-1.64,10.54c-.68,4.12,0,6.98,1.96,8.65l2.99-19.19Z"/>
    <path class="cls-6" d="M459.36,139.27c-.18.98-.74,1.46-1.7,1.46h-4.42v.09c-2.72,3.28-6.17,4.92-10.36,4.92-4.73,0-7.35-1.96-7.88-5.87-3.5,1.71-7.41,2.58-11.77,2.58-3.58,0-6.71-.6-9.42-1.78-.22,3.13-.05,6,.52,8.62,2.99,1.61,6.56,2.45,10.76,2.45,6.2,0,11.52-1.73,15.97-5.18l-.26,1.73c-.09,1.15.39,1.73,1.44,1.73h17.28c.96,0,1.53-.49,1.7-1.46l7.25-46.01h-3.32l-5.79,36.73Z"/>
    <path class="cls-6" d="M523.53,147.6c-3.58,0-6.57-.84-8.97-2.53-1.11-.78-1.99-1.68-2.68-2.69-.62.02-1.23.07-1.85.07-7.85,0-14.39-2-19.65-5.95.2,3.32.78,6.39,1.75,9.21,5.28,4,11.85,6.02,19.76,6.02,5.5,0,10.62-.86,15.38-2.59,4.75-1.73,8.44-4.1,11.06-7.11.11-.13.19-.28.24-.43-.25.07-.5.18-.77.4-3.93,3.72-8.69,5.58-14.27,5.58Z"/>
    <path class="cls-6" d="M541.43,105.24c-.04,3.35-.46,6.54-1.29,9.57-.26.89-.83,1.33-1.7,1.33l-31.66-.37c.44,2.75-8.16,7.97-5.76,9.65,2.4,1.68,7.79-.12,11.36-.12,1.54,0,20.26.12,20.26.12h7.65c.87,0,1.44-.44,1.7-1.33.87-3.19,1.31-6.56,1.31-10.1,0-2.96-.37-5.71-1.11-8.25-.25-.18-.51-.34-.77-.51Z"/>
    <path class="cls-6" d="M528.81,138.43h8.26l-2.58-3.72c-1.61,1.41-3.5,2.66-5.68,3.72Z"/>
    <path class="cls-6" d="M572.71,126.45c1.16.12,2.34.19,3.56.19,4.45,0,6.68-1.28,6.68-3.85,0-.97-.26-1.66-.79-2.06-.52-.4-1.49-.77-2.88-1.13l-5.63-1.6c-1.69-.42-3.3-.97-4.88-1.62-.47,1.81-.73,3.74-.73,5.83,0,.8.04,1.57.1,2.31,1.47.75,3,1.39,4.57,1.93Z"/>
    <path class="cls-6" d="M604.02,126.43c-1.12,4.08-3.46,7.49-7.07,10.17-2.67,1.99-5.84,3.46-9.5,4.43l2.97.84c1.39.35,2.36.73,2.88,1.13.52.4.79,1.09.79,2.06,0,2.57-2.23,3.85-6.68,3.85-6.46,0-12.22-1.64-17.28-4.92-1.05-.71-1.79-.53-2.23.53l-3.01,5.98c3.69.8,7.82,1.22,12.44,1.22,9.08,0,16.23-1.95,21.47-5.85,5.24-3.9,7.85-9.26,7.85-16.08,0-.76-.03-1.5-.09-2.21-.81-.43-1.67-.81-2.55-1.17Z"/>
    <path class="cls-6" d="M591.6,103.6c3.41.5,6.6,1.52,9.56,3.09,1.05.71,1.79.49,2.22-.66l2.43-4.78c-3.1-.54-6.35-.82-9.77-.82-4.06,0-7.7.44-10.96,1.29l3.74,1.01c.95.26,1.88.56,2.77.88Z"/>
    <path class="cls-6" d="M632.7,104l-.43,2.95h1.28l.7-4.39c-.86.05-1.39.52-1.55,1.44Z"/>
    <polygon class="cls-6" points="661.87 77.82 658.59 77.82 658.21 80.25 661.5 80.25 661.87 77.82"/>
    <path class="cls-6" d="M663.82,140.77c-3.96,1.12-7.97,1.69-12.02,1.69-3.36,0-6.29-.5-8.84-1.43-.27,3.18-.2,6.05.24,8.61,2.9,1.39,6.37,2.12,10.46,2.12s8.16-.58,12.17-1.73c.87-.27,1.35-.84,1.44-1.73l.26-1.75c-.99-.43-1.81-1.01-2.43-1.8-.74-.94-1.16-2.28-1.29-3.97Z"/>
    <path class="cls-6" d="M670.11,97.66h-14.64l-2.49,15.82c-.7,4.25-.37,7.24.98,8.97.23.3.53.53.81.78.02-.16.04-.3.06-.46l2.49-15.82h16.76c.96,0,1.53-.49,1.7-1.46l.46-2.95h-6.88l.75-4.88Z"/>
    <path class="cls-6" d="M757.05,108.15c0-7.62,2.18-13.78,6.54-18.48,4.45-4.7,10.25-7.04,17.41-7.04,4.63,0,8.77,1.09,12.44,3.26,3.05,1.8,5.32,4.11,6.92,6.86h11.57l7.95-2.54c.96-.27,1.31-.93,1.05-1.99-.23-.75-.51-1.48-.79-2.2-1.3-1.11-2.68-2.17-4.2-3.14-.46-.3-.94-.56-1.42-.84l-13.13,4.2c-.87.27-1.53-.09-1.96-1.06-1.57-3.54-4.19-6.4-7.85-8.57-.4-.23-.82-.41-1.23-.61-13.18.12-24.2,4.31-33.05,12.6-.26.24-.47.5-.72.75-.91,2.88-1.39,6.04-1.39,9.53,0,4,.65,7.54,1.91,10.66-.02-.46-.05-.9-.05-1.37Z"/>
    <path class="cls-6" d="M780.87,116.5l-.59,3.74h8.7c.48-.24.97-.44,1.43-.71,2.13-1.26,3.84-2.76,5.14-4.49h-12.98c-.96,0-1.53.49-1.7,1.46Z"/>
    <path class="cls-6" d="M808.86,131.16c-.81.74-1.66,1.42-2.52,2.09h2.54c-1.22,3.55-3.67,6.4-7.33,8.57-3.67,2.17-7.86,3.26-12.57,3.26-4.34,0-8.13-.89-11.38-2.65-.32,0-.62.03-.94.03-12.74,0-23.26-3.94-31.55-11.83-.18-.17-.33-.36-.5-.54.6,3.71,1.61,7.18,3.03,10.4,8.19,7.48,18.47,11.25,30.88,11.25,13.27,0,24-3.76,32.2-11.3,7.28-6.68,11.32-15.16,12.13-25.41h-3.65c-1.96,6.19-5.39,11.58-10.34,16.12Z"/>
    <path class="cls-6" d="M860.79,110.27c2.57-2.48,5.96-3.72,10.15-3.72s7.45.99,9.98,2.93l.99-6.24c-.62-.94-1.34-1.77-2.14-2.49-.83-.05-1.68-.08-2.55-.08-8.82,0-16.15,2.82-22.05,8.37-.06.57-.1,1.16-.1,1.77,0,2.86.66,5.31,1.97,7.38.35-3.2,1.59-5.85,3.75-7.93Z"/>
    <path class="cls-6" d="M896.83,139.27c-.18.98-.74,1.46-1.7,1.46h-4.49l-.2,1.29c-2.36,2.84-5.98,4.25-10.87,4.25-4.02,0-7.24-1.22-9.69-3.66-.36-.36-.68-.73-.98-1.12-2.31.63-4.9.96-7.8.96-6.25,0-11.66-1.77-16.25-5.25.2,3.32.76,6.37,1.69,9.15,4.63,3.57,10.09,5.38,16.42,5.38,6.72,0,11.87-1.68,15.45-5.05l-.26,1.6c-.09,1.15.39,1.73,1.44,1.73h17.41c.96,0,1.53-.49,1.7-1.46l7.15-46.01h-3.3l-5.71,36.73Z"/>
    <path class="cls-6" d="M954.58,105.73l.26-1.59c.17-1.06-.31-1.6-1.44-1.6h-12.94s-.02.03-.03.04l-5.63,36.69c-.18.98-.74,1.46-1.7,1.46h-4.51l-1.44,9.29h7.81c.96,0,1.53-.49,1.7-1.46l5.63-36.69c2.79-3.63,6.41-5.45,10.87-5.45,2.17,0,3.84.52,5.03,1.55l.05-.34c.24-1.61.28-3.01.17-4.24-1.31.67-2.58,1.45-3.82,2.34Z"/>
    <path class="cls-6" d="M980,102.04c-.14.18-.3.35-.44.54l-.26,1.86-5.5,34.82c-.17.98-.74,1.46-1.7,1.46h-4.4l-1.43,9.29h7.69c.96,0,1.53-.49,1.7-1.46l5.5-34.82.26-1.86c1.51-2.09,3.34-3.56,5.48-4.44-1.8-2.43-4.11-4.22-6.9-5.39Z"/>
    <path class="cls-6" d="M1095.78,105.75c-.25-.18-.51-.34-.77-.51-.04,3.35-.46,6.54-1.29,9.57-.26.89-.83,1.33-1.7,1.33h-39.27c.44,2.75,1.85,4.96,4.25,6.65,2.4,1.68,5.39,2.53,8.97,2.53,1.54,0,3.01-.16,4.43-.44h15.45l.38.56h7.65c.87,0,1.44-.44,1.7-1.33.87-3.19,1.31-6.56,1.31-10.1,0-2.96-.37-5.71-1.11-8.25Z"/>
    <path class="cls-6" d="M1077.11,147.6c-3.58,0-6.57-.84-8.97-2.53-1.11-.78-1.99-1.68-2.68-2.69-.62.02-1.23.07-1.85.07-9.34,0-16.84-2.79-22.52-8.37-.87-.88-1.65-1.83-2.38-2.8-.47,1.72-.75,3.45-.75,5.17,0,4.34,6.53,5.72,7.75,9.27,5.28,4,11.85,6.02,19.76,6.02,5.5,0,10.62-.86,15.38-2.59,4.75-1.73,8.44-4.1,11.06-7.11.11-.13.19-.28.24-.43-.25.07-.5.18-.77.4-3.93,3.72-8.69,5.58-14.27,5.58Z"/>
    <path class="cls-6" d="M1082.39,138.43h8.26l-2.58-3.72c-1.61,1.41-3.5,2.66-5.68,3.72Z"/>
  </g>
</svg>